<?xml version="1.0" encoding="utf-8"?>
<svg id="master-artboard" viewBox="0 0 13.317408561706543 52.93853759765625" version="1.1" xmlns="http://www.w3.org/2000/svg" x="0px" y="0px" style="enable-background:new 0 0 1096 780;"><rect id="ee-background" x="0" y="0" width="13.317408561706543" height="52.93853759765625" style="fill: white; fill-opacity: 0; pointer-events: none;"/><defs><radialGradient id="gradient-0" gradientUnits="objectBoundingBox" cx="0.5" cy="0.5" r="0.5">
    <stop offset="0" style="stop-color: #353633"/>
    <stop offset="1" style="stop-color: #020201"/>
</radialGradient></defs>

    <path class="st1" d="M400.1,287.4c0,0-26.9-1.4-34,18c-7.1,19.4,3.8,33.6,8.5,40.6c4.7,7.1,8,13.2-8.5,31.2&#10;&#9;&#9;&#9;c-16.5,18-33.9,47.5-2.8,81.3c26.5,28.8,62.4,25.5,62.4,25.5s62.8,3.3,67.1-57.2c2.1-29.8-25-49.6-30.7-56.2c0,0-12.2-8.5,0-28.8&#10;&#9;&#9;&#9;c8.7-14.5,5.2-29.3,5.2-29.3s-2.8-13.6-9.2-2.6c0,0-5.3,13.1-20.2,11.3c-14.9-1.8-11.7-27.3-11.7-36.9c0-9.6-2.5-91.8-2.5-91.8&#10;&#9;&#9;&#9;l-2.8-85.4c0,0,1.8-11.7,8.9-14.2c0,0-8.5-36.1,2.1-52.1c0.7-1.1-14.2-3.5-16.7-3.2c0,0-13.8,6.4-18.4,5.3&#10;&#9;&#9;&#9;c-4.6-1.1,10.8,20.4,0.7,50c-0.5,1.4,6.4,14.2,6.4,14.2L400.1,287.4z" style="fill: black; stroke: black; fill-opacity: 1;" transform="matrix(0.0831831768155098, 0, 0, 0.11712709069252014, -28.362305323282875, -4.319959402084351)"/><path d="M 427.5 52.299999 H 435.3 V 55.599999 H 427.5 V 52.299999 Z" class="st1" style="fill: black;" transform="matrix(0.0831831768155098, 0, 0, 0.11712709069252014, -28.362305323282875, -4.319959402084351)"/><path d="M 426.799988 66 H 434.599988 V 69.3 H 426.799988 V 66 Z" class="st1" style="fill: black;" transform="matrix(0.0831831768155098, 0, 0, 0.11712709069252014, -28.362305323282875, -4.319959402084351)"/><path d="M 425.899994 80.400002 H 433.699994 V 83.700001 H 425.899994 V 80.400002 Z" class="st1" style="fill: black;" transform="matrix(0.0831831768155098, 0, 0, 0.11712709069252014, -28.362305323282875, -4.319959402084351)"/><path d="M 435.29998779296875 50.900001525878906 L 434.6000061035156 56.5 L 442.3999938964844 57.5 L 442.5 49.20000076293945 Z" class="st1" style="fill: black;" transform="matrix(0.0831831768155098, 0, 0, 0.11712709069252014, -28.362305323282875, -4.319959402084351)"/><path d="M 434.1000061035156 65.30000305175781 L 433.3999938964844 70 L 441.20001220703125 70.80000305175781 L 441.3999938964844 63.900001525878906 Z" class="st1" style="fill: black;" transform="matrix(0.0831831768155098, 0, 0, 0.11712709069252014, -28.362305323282875, -4.319959402084351)"/><path d="M 431.3999938964844 80 L 430.70001220703125 83.9000015258789 L 438.20001220703125 84.5 L 438.29998779296875 78.9000015258789 Z" class="st1" style="fill: black;" transform="matrix(0.0831831768155098, 0, 0, 0.11712709069252014, -28.362305323282875, -4.319959402084351)"/><path d="M 390 55.5 H 400.1 V 58.7 H 390 V 55.5 Z" class="st1" style="fill: black;" transform="matrix(0.0831831768155098, 0, 0, 0.11712709069252014, -28.362305323282875, -4.319959402084351)"/><path d="M 395.799988 68.300003 H 401.499988 V 72.600003 H 395.799988 V 68.300003 Z" class="st1" style="fill: black;" transform="matrix(0.0831831768155098, 0, 0, 0.11712709069252014, -28.362305323282875, -4.319959402084351)"/><path d="M 392.100006 80.400002 H 403.600006 V 84.500001 H 392.100006 V 80.400002 Z" class="st1" style="fill: black;" transform="matrix(0.0831831768155098, 0, 0, 0.11712709069252014, -28.362305323282875, -4.319959402084351)"/><path d="M 396 83.300003 A 3.5 5.1 0 0 1 392.5 88.400003 A 3.5 5.1 0 0 1 389 83.300003 A 3.5 5.1 0 0 1 392.5 78.200003 A 3.5 5.1 0 0 1 396 83.300003 Z" class="st1" style="fill: black;" transform="matrix(0.0831831768155098, 0, 0, 0.11712709069252014, -28.362305323282875, -4.319959402084351)"/>
</svg>
